<svg xmlns="http://www.w3.org/2000/svg" width="64" height="64" viewBox="0 0 64 64" fill="none">
 <!-- File document -->
 <path d="M16 8h24l8 8v40a4 4 0 0 1-4 4H16a4 4 0 0 1-4-4V12a4 4 0 0 1 4-4z" fill="#FF6D5A"/>
 <path d="M40 8v8h8" stroke="#FFFFFF" stroke-width="2" fill="none"/>

 <!-- File content lines -->
 <line x1="20" y1="24" x2="36" y2="24" stroke="#FFFFFF" stroke-width="2"/>
 <line x1="20" y1="30" x2="44" y2="30" stroke="#FFFFFF" stroke-width="2"/>
 <line x1="20" y1="36" x2="40" y2="36" stroke="#FFFFFF" stroke-width="2"/>

 <!-- Magic wand -->
 <g transform="translate(28, 28)">
   <!-- Wand handle -->
   <line x1="8" y1="20" x2="20" y2="8" stroke="#FFD700" stroke-width="3" stroke-linecap="round"/>
   <!-- Wand tip -->
   <circle cx="20" cy="8" r="2" fill="#FFD700"/>
   <!-- Magic sparkles -->
   <g fill="#FFD700">
     <!-- Large sparkle -->
     <path d="M24 4 L26 8 L30 6 L28 10 L32 12 L28 14 L30 18 L26 16 L24 20 L22 16 L18 18 L20 14 L16 12 L20 10 L18 6 L22 8 Z"/>
     <!-- Small sparkles -->
     <circle cx="12" cy="12" r="1"/>
     <circle cx="6" cy="18" r="1"/>
     <circle cx="14" cy="24" r="1"/>
     <!-- Star sparkles -->
     <path d="M10 6 L11 8 L13 7 L12 9 L14 10 L12 11 L13 13 L11 12 L10 14 L9 12 L7 13 L8 11 L6 10 L8 9 L7 7 L9 8 Z" transform="scale(0.5)"/>
     <path d="M4 24 L5 26 L7 25 L6 27 L8 28 L6 29 L7 31 L5 30 L4 32 L3 30 L1 31 L2 29 L0 28 L2 27 L1 25 L3 26 Z" transform="scale(0.5)"/>
   </g>
 </g>
</svg>
